<svg width="46" height="46" viewBox="0 0 46 46" fill="none" xmlns="http://www.w3.org/2000/svg">
<path d="M35.5 12.2315V18.4952C35.5 18.772 35.3965 19.0376 35.2123 19.2334C35.028 19.4291 34.7781 19.5391 34.5176 19.5391C34.257 19.5391 34.0071 19.4291 33.8229 19.2334C33.6387 19.0376 33.5352 18.772 33.5352 18.4952V14.7516L22.4418 26.5399C22.3055 26.6843 22.1324 26.7832 21.9439 26.8244C21.7554 26.8656 21.8773 26.8196 21.6985 26.744L14.371 20.783L4.36413 31.4542C4.17884 31.6443 3.93068 31.7496 3.6731 31.7472C3.41551 31.7448 3.16911 31.635 2.98696 31.4415C2.80481 31.2479 2.70149 30.9861 2.69926 30.7123C2.69702 30.4386 2.79604 30.1749 2.97499 29.978L13.4417 18.8203C13.5773 18.6763 13.7497 18.5775 13.9376 18.5364C14.1254 18.4952 14.3205 18.5133 14.4987 18.5886L21.8282 24.5496L32.146 13.2754H28.6231C28.3625 13.2754 28.1127 13.1654 27.9284 12.9696C27.7442 12.7739 27.6407 12.5083 27.6407 12.2315C27.6407 11.9546 27.7442 11.689 27.9284 11.4933C28.1127 11.2975 28.3625 11.1875 28.6231 11.1875H34.5176C34.7778 11.1886 35.0271 11.2989 35.2111 11.4945C35.3951 11.69 35.499 11.9549 35.5 12.2315Z" fill="black"/>
</svg>
